<svg xmlns="http://www.w3.org/2000/svg" width="15" height="15" fill="none"><path fill="#664214" d="M1.833 1.5h11.975l.693 2.21-13.3.006.632-2.216z"/><path fill="#db9640" d="M7.851 13.5c1.085 0 1.964-.88 1.964-1.964 0-.792-.49-1.4-.49-1.4-.517.76-1.05.918-1.05.918s.18-.84.06-1.361c-.12-.522-.484-1.164-.484-1.164 0 .564-1.964 1.45-1.964 3.007 0 1.085.88 1.964 1.964 1.964z"/><path fill="#664214" fill-rule="evenodd" d="m13.391 4.553-11.074.002-.006 8.945h11.08zm-5.54 2.023c-2.892 0-3.47 2.058-3.47 2.824v4.1h6.94V9.4c0-.748-.579-2.825-3.47-2.825z" clip-rule="evenodd"/></svg>